<svg id="svg-elegant-line-icon-sprites" version="1.1" xmlns="http://www.w3.org/2000/svg" xmlns:xlink="http://www.w3.org/1999/xlink">
  <symbol id="attachments" viewBox="0 0 32 32">
          <path d="M18.986,16.471c0.164,0.018,0.327,0.026,0.49,0.026c1.216,0,2.382-0.481,3.258-1.357l7.405-7.405
                  c0.866-0.866,1.349-2.014,1.356-3.231c0.009-1.22-0.459-2.364-1.316-3.222c-0.85-0.85-1.98-1.317-3.188-1.317
                  c-0.011,0-0.021,0-0.033,0c-1.217,0.008-2.364,0.49-3.23,1.356l-7.405,7.405c-1.095,1.095-1.569,2.649-1.269,4.157
                  c0.058,0.29,0.346,0.479,0.629,0.419c0.29-0.058,0.478-0.339,0.42-0.628c-0.231-1.157,0.134-2.351,0.976-3.192l7.405-7.405
                  c0.666-0.667,1.548-1.037,2.482-1.043c0.975,0,1.805,0.35,2.458,1.003s1.01,1.527,1.004,2.458
                  c-0.007,0.935-0.377,1.816-1.044,2.482l-7.405,7.405c-0.764,0.763-1.813,1.133-2.879,1.024c-0.285-0.033-0.557,0.181-0.588,0.475
                  C18.48,16.177,18.693,16.44,18.986,16.471z"/>
          <path d="M15.14,23.273c1.148-1.148,1.608-2.769,1.229-4.334c-0.069-0.287-0.351-0.466-0.646-0.394
                  c-0.287,0.069-0.463,0.358-0.394,0.645c0.291,1.201-0.063,2.444-0.946,3.328l-7.405,7.405c-0.666,0.667-1.548,1.037-2.482,1.043
                  c-0.959,0.005-1.805-0.349-2.458-1.003c-0.653-0.653-1.01-1.526-1.003-2.458c0.006-0.935,0.377-1.816,1.043-2.483l7.405-7.405
                  c0.771-0.771,1.822-1.144,2.906-1.021c0.288,0.022,0.559-0.177,0.592-0.471c0.033-0.293-0.177-0.558-0.471-0.592
                  c-1.404-0.158-2.78,0.324-3.783,1.327l-7.405,7.405c-0.866,0.866-1.348,2.014-1.356,3.231c-0.009,1.22,0.459,2.364,1.316,3.222
                  c0.85,0.85,1.98,1.317,3.188,1.317c0.011,0,0.021,0,0.033,0c1.217-0.008,2.364-0.49,3.23-1.356L15.14,23.273z"/>
          <path d="M22.734,8.872c-0.209-0.209-0.547-0.209-0.756,0l-13.5,13.5c-0.209,0.208-0.209,0.547,0,0.756
                  c0.104,0.104,0.241,0.157,0.378,0.157s0.273-0.052,0.378-0.157l13.5-13.5C22.943,9.419,22.943,9.081,22.734,8.872z"/>
  </symbol>
  <symbol id="dial" viewBox="0 0 32 32">
          <path d="M15.999,11c-2.729,0-4.971,2.22-4.999,4.949c-0.028,2.757,2.192,5.022,4.949,5.051c0.001,0,0.05,0,0.052,0
                  c2.729,0,4.971-2.22,4.999-4.949C21.028,13.294,18.808,11.028,15.999,11z M16.001,20v0.5L15.959,20
                  c-2.205-0.022-3.981-1.835-3.959-4.041C12.022,13.776,13.816,12,16.041,12c2.205,0.022,3.981,1.835,3.959,4.041
                  C19.978,18.224,18.184,20,16.001,20z"/>
          <circle cx="1" cy="16" r="1"/>
          <circle cx="31" cy="16" r="1"/>
          <circle cx="16" cy="1" r="1"/>
          <circle cx="16" cy="31" r="1"/>
          <circle cx="5" cy="5" r="1"/>
          <circle cx="27" cy="27" r="1"/>
          <circle cx="27" cy="5" r="1"/>
          <circle cx="5" cy="27" r="1"/>
          <path d="M24,16.076V8.5C24,8.224,23.776,8,23.5,8h-7.501C11.633,8,8.045,11.552,8,15.919
                  c-0.021,2.137,0.79,4.154,2.286,5.681s3.496,2.379,5.633,2.4c0.001,0,0.081,0,0.083,0c0,0,0,0,0,0
                  C20.367,24,23.955,20.448,24,16.076z M16.001,23v0.5L15.929,23c-1.87-0.019-3.62-0.765-4.929-2.101s-2.019-3.101-2-4.971
                  C9.039,12.108,12.178,9,16.076,9h0H23v7.071C22.961,19.892,19.821,23.001,16.001,23z"/>
  </symbol>
  <symbol id="gears" viewBox="0 0 42 32">
          <path d="M3.692,21.72c0.176,0.042,0.415,0.259,0.484,0.457l0.35,0.844c0.079,0.162,0.064,0.483-0.03,0.637
                  l-1.397,2.284c-0.299,0.49-0.237,1.184,0.165,1.634l1.183,1.182c0.412,0.366,1.139,0.432,1.613,0.145l2.284-1.397
                  c0.143-0.088,0.45-0.119,0.665-0.018l0.843,0.348c0.17,0.059,0.387,0.297,0.429,0.473l0.627,2.604
                  c0.133,0.552,0.66,1.006,1.226,1.058c0,0,0.347,0.032,0.867,0.032s0.867-0.032,0.868-0.032c0.565-0.051,1.092-0.506,1.225-1.058
                  l0.628-2.604c0.042-0.175,0.258-0.414,0.456-0.483l0.844-0.35c0.149-0.073,0.494-0.058,0.637,0.03l2.284,1.397
                  c0.201,0.123,0.441,0.188,0.696,0.188c0.345,0,0.679-0.121,0.938-0.352l1.182-1.183c0.382-0.429,0.444-1.123,0.145-1.613
                  l-1.397-2.284c-0.094-0.154-0.109-0.475-0.018-0.665l0.348-0.843c0.059-0.17,0.297-0.387,0.473-0.429l2.604-0.627
                  c0.552-0.133,1.006-0.66,1.058-1.226c0,0,0.032-0.347,0.032-0.867s-0.032-0.867-0.032-0.868c-0.051-0.565-0.506-1.092-1.058-1.226
                  l-2.603-0.626c-0.176-0.042-0.415-0.259-0.484-0.457l-0.35-0.844c-0.079-0.162-0.064-0.483,0.03-0.637l1.397-2.284
                  c0.299-0.49,0.237-1.184-0.165-1.634l-1.183-1.182c-0.413-0.367-1.141-0.433-1.613-0.145l-2.284,1.397
                  c-0.143,0.087-0.451,0.12-0.665,0.018l-0.843-0.348c-0.17-0.059-0.386-0.297-0.428-0.473l-0.628-2.604
                  c-0.133-0.552-0.66-1.006-1.226-1.058C13.867,6.032,13.52,6,13,6s-0.867,0.032-0.868,0.032c-0.565,0.051-1.092,0.506-1.226,1.058
                  L10.28,9.692c-0.042,0.176-0.259,0.415-0.457,0.484l-0.844,0.35c-0.15,0.073-0.494,0.057-0.637-0.03L6.059,9.099
                  C5.586,8.811,4.874,8.861,4.425,9.263l-1.182,1.183c-0.382,0.429-0.444,1.123-0.145,1.613l1.397,2.284
                  c0.094,0.154,0.109,0.475,0.018,0.665l-0.348,0.843c-0.059,0.17-0.297,0.387-0.473,0.429l-2.604,0.627
                  c-0.552,0.133-1.006,0.66-1.058,1.226C0.032,18.133,0,18.48,0,19s0.032,0.867,0.032,0.868c0.051,0.565,0.506,1.092,1.058,1.226
                  L3.692,21.72z M1,19c0-0.458,0.027-0.767,0.028-0.777c0.012-0.135,0.165-0.312,0.296-0.344l2.604-0.627
                  c0.505-0.122,1.014-0.584,1.172-1.047l0.324-0.787c0.228-0.467,0.196-1.153-0.075-1.597l-1.397-2.283
                  c-0.067-0.111-0.048-0.331,0.018-0.406L5.111,9.99c0.091-0.081,0.323-0.101,0.427-0.038l2.284,1.397
                  c0.433,0.265,1.175,0.283,1.568,0.088l0.788-0.326c0.491-0.169,0.953-0.678,1.075-1.184l0.626-2.603
                  c0.032-0.132,0.209-0.285,0.344-0.297C12.233,7.027,12.542,7,13,7s0.767,0.027,0.777,0.028c0.135,0.012,0.312,0.165,0.344,0.296
                  l0.627,2.603c0.122,0.505,0.583,1.015,1.047,1.173l0.787,0.324c0.457,0.224,1.165,0.189,1.597-0.075l2.283-1.397
                  c0.104-0.063,0.35-0.03,0.406,0.018l1.142,1.141c0.086,0.097,0.105,0.316,0.038,0.427l-1.397,2.284
                  c-0.271,0.443-0.303,1.13-0.088,1.568l0.326,0.788c0.169,0.491,0.678,0.953,1.184,1.075l2.603,0.626
                  c0.132,0.032,0.285,0.209,0.297,0.344C24.973,18.233,25,18.542,25,19s-0.027,0.767-0.028,0.777
                  c-0.012,0.135-0.165,0.312-0.296,0.344l-2.604,0.627c-0.505,0.122-1.014,0.584-1.172,1.047l-0.324,0.787
                  c-0.228,0.467-0.196,1.153,0.075,1.597l1.397,2.283c0.067,0.111,0.048,0.331-0.018,0.406l-1.141,1.142
                  c-0.054,0.048-0.152,0.079-0.251,0.079c-0.069,0-0.133-0.015-0.175-0.041l-2.284-1.397c-0.432-0.264-1.174-0.283-1.568-0.088
                  l-0.788,0.326c-0.491,0.169-0.953,0.679-1.074,1.184l-0.627,2.603c-0.032,0.132-0.209,0.285-0.344,0.297
                  C13.767,30.973,13.458,31,13,31s-0.767-0.027-0.777-0.028c-0.135-0.012-0.312-0.165-0.344-0.296l-0.627-2.604
                  c-0.122-0.505-0.584-1.014-1.047-1.172l-0.787-0.324c-0.204-0.1-0.451-0.152-0.715-0.152c-0.329,0-0.642,0.081-0.882,0.228
                  l-2.283,1.397c-0.104,0.063-0.351,0.029-0.406-0.018L3.99,26.889c-0.086-0.097-0.105-0.316-0.038-0.427l1.397-2.284
                  c0.271-0.443,0.303-1.13,0.088-1.568l-0.326-0.788c-0.169-0.491-0.678-0.953-1.184-1.075l-2.603-0.626
                  c-0.132-0.032-0.285-0.209-0.297-0.344C1.027,19.767,1,19.458,1,19z"/>
          <path d="M13,24.5c3.033,0,5.5-2.467,5.5-5.5s-2.467-5.5-5.5-5.5S7.5,15.967,7.5,19S9.967,24.5,13,24.5z M13,14.5
                  c2.481,0,4.5,2.019,4.5,4.5s-2.019,4.5-4.5,4.5S8.5,21.481,8.5,19S10.519,14.5,13,14.5z"/>
          <path d="M27.477,5.314c-0.04,0.061-0.185,0.138-0.259,0.138l-1.861-0.018c-0.452,0-0.905,0.321-1.053,0.746
                  c0,0-0.082,0.233-0.172,0.59c-0.09,0.357-0.128,0.601-0.128,0.601c-0.07,0.451,0.181,0.95,0.584,1.161l1.641,0.86
                  c0.063,0.033,0.156,0.172,0.166,0.273l0.093,0.635c0.015,0.07-0.033,0.23-0.084,0.28l-1.322,1.296
                  c-0.331,0.324-0.418,0.878-0.19,1.313l0.599,1c0.253,0.372,0.801,0.562,1.231,0.428l1.824-0.558c0.099,0,0.198,0.038,0.254,0.083
                  l0.515,0.38c0.06,0.04,0.139,0.187,0.138,0.259l-0.018,1.852c-0.004,0.456,0.316,0.913,0.746,1.063c0,0,0.233,0.082,0.59,0.172
                  c0.357,0.09,0.601,0.128,0.601,0.128c0.026,0.004,0.13,0.012,0.156,0.012c0.408,0,0.822-0.245,1.005-0.596l0.86-1.641
                  c0.033-0.063,0.172-0.156,0.273-0.166l0.663-0.096c0.1,0,0.218,0.052,0.251,0.086l1.296,1.322c0.315,0.322,0.846,0.437,1.313,0.19
                  l0.999-0.599c0.382-0.26,0.567-0.79,0.429-1.231l-0.552-1.767c-0.021-0.068,0.012-0.232,0.078-0.311l0.38-0.515
                  c0.04-0.061,0.185-0.138,0.259-0.138l1.861,0.018c0.452,0,0.905-0.321,1.053-0.746c0,0,0.082-0.233,0.172-0.59
                  c0.09-0.357,0.128-0.601,0.128-0.601c0.07-0.451-0.181-0.95-0.584-1.161l-1.641-0.86c-0.063-0.033-0.156-0.172-0.166-0.273
                  L39.513,7.7c-0.015-0.07,0.033-0.23,0.084-0.28l1.322-1.296c0.331-0.324,0.418-0.878,0.19-1.313L40.51,3.811
                  c-0.253-0.371-0.8-0.563-1.231-0.429L37.454,3.94c-0.099,0-0.198-0.038-0.254-0.083l-0.515-0.38
                  c-0.06-0.04-0.139-0.187-0.138-0.259l0.018-1.852c0.004-0.456-0.316-0.913-0.746-1.063c0,0-0.233-0.082-0.59-0.172
                  c-0.357-0.09-0.601-0.128-0.601-0.128C34.602,0,34.498-0.008,34.472-0.008c-0.408,0-0.822,0.245-1.005,0.596l-0.86,1.641
                  c-0.033,0.063-0.172,0.156-0.273,0.166L31.671,2.49c-0.1,0-0.218-0.052-0.251-0.086l-1.296-1.322
                  c-0.314-0.321-0.844-0.437-1.313-0.19L27.811,1.49c-0.382,0.26-0.567,0.79-0.429,1.231l0.552,1.767
                  c0.021,0.068-0.012,0.232-0.078,0.311L27.477,5.314z M28.297,5.886L28.64,5.42c0.268-0.317,0.372-0.834,0.248-1.229l-0.551-1.766
                  c-0.005-0.028,0.017-0.091,0.012-0.092l0.948-0.568l0.113,0.017l1.297,1.322c0.23,0.234,0.609,0.386,0.965,0.386
                  c0.082,0,0.161-0.008,0.204-0.019l0.575-0.085c0.412-0.036,0.851-0.328,1.043-0.694l0.859-1.64c0.016-0.025,0.079-0.061,0.12-0.061
                  c0.011,0.001,0.215,0.035,0.513,0.109c0.297,0.075,0.493,0.142,0.502,0.146c0.031,0.013,0.076,0.078,0.078,0.11l-0.018,1.852
                  c-0.004,0.414,0.245,0.879,0.567,1.089L36.58,4.64c0.309,0.261,0.839,0.371,1.229,0.248l1.774-0.552
                  c0.042,0,0.089,0.026,0.083,0.013l0.568,0.948c0.011,0.026,0,0.092-0.017,0.113l-1.322,1.297c-0.295,0.291-0.448,0.795-0.367,1.169
                  l0.084,0.575c0.036,0.412,0.328,0.851,0.695,1.043l1.64,0.859c0.028,0.018,0.063,0.088,0.061,0.12
                  c-0.001,0.011-0.035,0.215-0.109,0.513c-0.075,0.297-0.142,0.493-0.146,0.502c-0.013,0.031-0.078,0.076-0.11,0.078l-1.862-0.018
                  c-0.411,0-0.871,0.249-1.079,0.567L37.36,12.58c-0.268,0.317-0.372,0.834-0.248,1.229l0.551,1.766
                  c0.005,0.027-0.017,0.091-0.012,0.092l-0.948,0.568l-0.113-0.017l-1.297-1.322c-0.23-0.234-0.609-0.386-0.965-0.386
                  c-0.082,0-0.161,0.008-0.204,0.019l-0.575,0.085c-0.412,0.036-0.851,0.328-1.043,0.694l-0.859,1.64
                  c-0.016,0.025-0.079,0.061-0.12,0.061h0c-0.011-0.001-0.215-0.035-0.513-0.109c-0.297-0.075-0.493-0.142-0.502-0.146
                  c-0.031-0.013-0.076-0.078-0.078-0.11l0.018-1.852c0.004-0.414-0.245-0.879-0.567-1.089L29.42,13.36
                  c-0.222-0.188-0.549-0.3-0.875-0.3c-0.126,0-0.246,0.018-0.355,0.052l-1.774,0.552c-0.043,0-0.09-0.023-0.083-0.013l-0.568-0.948
                  c-0.011-0.026,0-0.092,0.017-0.113l1.322-1.297c0.295-0.291,0.448-0.795,0.367-1.169L27.387,9.55
                  c-0.036-0.412-0.328-0.851-0.695-1.043l-1.64-0.859c-0.028-0.018-0.063-0.088-0.061-0.12c0.001-0.011,0.035-0.215,0.109-0.513
                  c0.075-0.297,0.142-0.493,0.146-0.502c0.013-0.031,0.078-0.076,0.11-0.078l1.862,0.018C27.629,6.453,28.089,6.204,28.297,5.886z"/>
          <path d="M33,12c1.654,0,3-1.346,3-3s-1.346-3-3-3s-3,1.346-3,3S31.346,12,33,12z M33,7c1.103,0,2,0.897,2,2
                  s-0.897,2-2,2s-2-0.897-2-2S31.897,7,33,7z"/>
  </symbol>
  <symbol id="layers" viewBox="0 0 32 32">
          <path d="M30.765,7.262L19.222,0.747c-1.571-0.887-4.271-0.888-5.845,0L1.834,7.262
                  C0.951,7.761,0.466,8.459,0.466,9.229s0.486,1.468,1.368,1.966l11.543,6.516c0.786,0.444,1.824,0.688,2.922,0.688
                  c1.099,0,2.137-0.245,2.923-0.688l11.543-6.516c0.883-0.498,1.369-1.196,1.369-1.966S31.647,7.761,30.765,7.262z M30.239,10.265
                  l-11.543,6.516c-1.238,0.699-3.556,0.7-4.794,0L2.359,10.265C1.835,9.969,1.535,9.591,1.535,9.229c0-0.363,0.3-0.74,0.824-1.037
                  l11.543-6.516c0.619-0.35,1.493-0.55,2.396-0.55c0.904,0,1.778,0.201,2.397,0.55l11.543,6.516c0.524,0.296,0.825,0.674,0.825,1.037
                  C31.064,9.591,30.764,9.969,30.239,10.265z"/>
          <path d="M30.765,14.099c-0.256-0.145-0.582-0.055-0.729,0.203c-0.145,0.257-0.054,0.583,0.203,0.728
                  c0.524,0.296,0.825,0.674,0.825,1.036s-0.301,0.74-0.825,1.036l-11.543,6.516c-1.298,0.733-3.494,0.734-4.794,0L2.359,17.102
                  c-0.524-0.296-0.824-0.674-0.824-1.036s0.3-0.74,0.824-1.036c0.257-0.145,0.348-0.471,0.203-0.728
                  c-0.146-0.258-0.473-0.349-0.729-0.203c-0.883,0.498-1.368,1.197-1.368,1.967s0.485,1.469,1.368,1.967l11.543,6.516
                  c0.819,0.462,1.871,0.694,2.922,0.694c1.052,0,2.104-0.231,2.923-0.694l11.543-6.516c0.883-0.498,1.369-1.197,1.369-1.967
                  S31.647,14.597,30.765,14.099z"/>
          <path d="M30.765,20.804c-0.256-0.145-0.582-0.055-0.729,0.203c-0.145,0.257-0.054,0.583,0.203,0.728
                  c0.524,0.296,0.825,0.674,0.825,1.036c0,0.362-0.301,0.74-0.825,1.037l-11.543,6.516c-1.298,0.733-3.494,0.734-4.794,0
                  L2.359,23.807c-0.524-0.296-0.824-0.674-0.824-1.037c0-0.362,0.3-0.74,0.824-1.036c0.257-0.145,0.348-0.471,0.203-0.728
                  c-0.146-0.257-0.473-0.349-0.729-0.203C0.952,21.302,0.466,22,0.466,22.771s0.485,1.469,1.368,1.967l11.543,6.516
                  c0.819,0.462,1.871,0.694,2.922,0.694c1.052,0,2.104-0.231,2.923-0.694l11.543-6.516c0.883-0.499,1.369-1.197,1.369-1.967
                  S31.647,21.302,30.765,20.804z"/>
  </symbol>
  <symbol id="linegraph" viewBox="0 0 42 32">
          <path d="M39,0c-1.654,0-3,1.346-3,3c0,0.888,0.396,1.679,1.011,2.229L28.211,19.26C27.84,19.095,27.431,19,27,19
                  c-0.868,0-1.644,0.376-2.193,0.967l-9.073-5.745C15.902,13.848,16,13.436,16,13c0-1.654-1.346-3-3-3s-3,1.346-3,3
                  c0,0.904,0.41,1.706,1.044,2.256L4.149,26.231C3.795,26.083,3.407,26,3,26c-1.654,0-3,1.346-3,3s1.346,3,3,3s3-1.346,3-3
                  c0-0.888-0.395-1.678-1.01-2.228l6.904-10.99C12.237,15.92,12.609,16,13,16c0.859,0,1.629-0.367,2.176-0.947l9.078,5.748
                  C24.093,21.169,24,21.573,24,22c0,1.654,1.346,3,3,3s3-1.346,3-3c0-0.863-0.371-1.636-0.957-2.184l8.81-14.046
                  C38.207,5.917,38.594,6,39,6c1.654,0,3-1.346,3-3S40.654,0,39,0z M5,29c0,1.103-0.897,2-2,2s-2-0.897-2-2s0.897-2,2-2
                  S5,27.897,5,29z M13,15c-1.103,0-2-0.897-2-2s0.897-2,2-2s2,0.897,2,2S14.103,15,13,15z M27,24c-1.103,0-2-0.897-2-2s0.897-2,2-2
                  s2,0.897,2,2S28.103,24,27,24z M39,5c-1.103,0-2-0.897-2-2s0.897-2,2-2s2,0.897,2,2S40.103,5,39,5z"/>
  </symbol>
  <symbol id="presentation" viewBox="0 0 31 32">
          <path d="M0.5,3C0.224,3,0,3.224,0,3.5v17C0,21.327,0.673,22,1.5,22h28c0.827,0,1.5-0.673,1.5-1.5v-17
                  C31,3.224,30.776,3,30.5,3S30,3.224,30,3.5v17c0,0.276-0.224,0.5-0.5,0.5h-28C1.224,21,1,20.776,1,20.5v-17C1,3.224,0.776,3,0.5,3z
                  "/>
          <path d="M32.5,0h-34C-1.776,0-2,0.224-2,0.5S-1.776,1-1.5,1h34C32.776,1,33,0.776,33,0.5S32.776,0,32.5,0z"/>
          <path d="M11.854,8.146c-0.183-0.183-0.475-0.196-0.674-0.031l-6,5c-0.212,0.177-0.241,0.492-0.064,0.705
                  c0.177,0.212,0.491,0.241,0.705,0.064l5.649-4.708l5.677,5.677C17.244,14.951,17.372,15,17.5,15s0.256-0.049,0.354-0.146L25,7.707
                  V11.5c0,0.276,0.224,0.5,0.5,0.5s0.5-0.224,0.5-0.5v-5c0-0.065-0.013-0.13-0.038-0.191c-0.051-0.122-0.148-0.22-0.271-0.271
                  C25.63,6.013,25.565,6,25.5,6h-5C20.224,6,20,6.224,20,6.5S20.224,7,20.5,7h3.793L17.5,13.793L11.854,8.146z"/>
          <path d="M8.057,31.732c0.128,0.245,0.43,0.339,0.675,0.211l6.768-3.545l6.768,3.545
                  C22.342,31.982,22.421,32,22.5,32c0.18,0,0.354-0.098,0.443-0.268c0.128-0.245,0.034-0.547-0.211-0.675l-6.893-3.61
                  C15.937,27.356,16,27.228,16,27.083V24.5c0-0.276-0.224-0.5-0.5-0.5S15,24.224,15,24.5v2.583c0,0.144,0.063,0.272,0.161,0.363
                  l-6.893,3.61C8.023,31.185,7.929,31.487,8.057,31.732z"/>
  </symbol>
  <symbol id="refresh" viewBox="0 0 32 32">
          <path d="M26.631,4H31.5C31.776,4,32,3.776,32,3.5S31.776,3,31.5,3h-6C25.224,3,25,3.224,25,3.5v6
                  c0,0.276,0.224,0.5,0.5,0.5S26,9.776,26,9.5V4.783l0.611,0.611c2.833,2.833,4.394,6.6,4.394,10.606s-1.561,7.773-4.394,10.606
                  c-4.205,4.206-10.504,5.532-16.051,3.375c-0.257-0.102-0.547,0.027-0.647,0.284c-0.1,0.258,0.027,0.548,0.285,0.647
                  c1.884,0.732,3.848,1.088,5.797,1.088c4.17,0,8.266-1.63,11.323-4.688c3.022-3.021,4.687-7.04,4.687-11.313
                  S30.34,7.708,27.318,4.687L26.631,4z"/>
          <path d="M6.5,22C6.224,22,6,22.224,6,22.5v4.84l-0.713-0.713c-2.833-2.833-4.394-6.6-4.394-10.606
                  S2.454,8.247,5.287,5.414c4.135-4.136,10.351-5.495,15.836-3.456c0.256,0.096,0.546-0.035,0.643-0.295
                  c0.096-0.259-0.036-0.547-0.295-0.643C15.622-1.152,8.991,0.295,4.58,4.707c-3.022,3.021-4.687,7.04-4.687,11.313
                  s1.665,8.292,4.687,11.313L5.246,28H0.5C0.224,28,0,28.224,0,28.5S0.224,29,0.5,29h5.856c0.04,0.01,0.376-0.025,0.474-0.123
                  c0.004-0.004,0.005-0.009,0.009-0.013C6.937,28.772,7,28.645,7,28.5v-6C7,22.224,6.776,22,6.5,22z"/>
  </symbol>
  <symbol id="speedometer" viewBox="0 0 32 32">
          <path d="M16-0.034C7.159-0.034-0.035,7.158-0.035,16S7.159,32.034,16,32.034S32.035,24.842,32.035,16
                  S24.841-0.034,16-0.034z M16,30.966C7.748,30.966,1.035,24.252,1.035,16S7.748,1.034,16,1.034S30.965,7.748,30.965,16
                  S24.252,30.966,16,30.966z"/>
          <path d="M16.5,6.053c0.305,0,0.553-0.247,0.553-0.553v-2c0-0.306-0.248-0.553-0.553-0.553S15.947,3.194,15.947,3.5
                  v2C15.947,5.806,16.195,6.053,16.5,6.053z"/>
          <path d="M5.5,14.947h-2c-0.305,0-0.553,0.247-0.553,0.553s0.248,0.553,0.553,0.553h2
                  c0.305,0,0.553-0.247,0.553-0.553S5.805,14.947,5.5,14.947z"/>
          <path d="M25.947,15.5c0,0.306,0.248,0.553,0.553,0.553h2c0.305,0,0.553-0.247,0.553-0.553s-0.248-0.553-0.553-0.553
                  h-2C26.195,14.947,25.947,15.194,25.947,15.5z"/>
          <path d="M8.575,10.128c0.142,0,0.283-0.054,0.391-0.162c0.216-0.216,0.216-0.565,0-0.781L7.391,7.609
                  c-0.216-0.217-0.565-0.217-0.781,0c-0.216,0.216-0.216,0.565,0,0.781l1.575,1.575C8.292,10.074,8.434,10.128,8.575,10.128z"/>
          <path d="M23.891,21.109c-0.216-0.217-0.565-0.217-0.781,0c-0.216,0.216-0.216,0.565,0,0.781l1.5,1.5
                  c0.108,0.108,0.249,0.162,0.391,0.162s0.283-0.054,0.391-0.162c0.216-0.216,0.216-0.565,0-0.781L23.891,21.109z"/>
          <path d="M24.891,7.891c0.216-0.216,0.216-0.565,0-0.781c-0.216-0.217-0.565-0.217-0.781,0l-1.575,1.575
                  c-0.216,0.216-0.216,0.565,0,0.781c0.108,0.108,0.249,0.162,0.391,0.162s0.283-0.054,0.391-0.162L24.891,7.891z"/>
          <path d="M8.609,21.609l-1.5,1.5c-0.216,0.216-0.216,0.565,0,0.781c0.108,0.108,0.249,0.162,0.391,0.162
                  s0.283-0.054,0.391-0.162l1.5-1.5c0.216-0.216,0.216-0.565,0-0.781C9.175,21.393,8.825,21.393,8.609,21.609z"/>
          <path d="M19.5,24h-7c-0.889-0.034-1.535,0.611-1.535,1.5v0.957c0,0.898,0.674,1.603,1.535,1.543h7
                  c0.86,0.06,1.535-0.645,1.535-1.543V25.5C21.035,24.611,20.389,23.966,19.5,24z M19.965,26.457c0,0.257-0.146,0.534-0.465,0.568h-7
                  c-0.32-0.034-0.465-0.312-0.465-0.025v-0.957c0-0.839,0.169-1.009,0.465-1.043h7c0.296,0.034,0.465,0.204,0.465,0.5V26.457z"/>
          <path d="M16,18.667c0.712,0,1.382-0.277,1.885-0.781c0.911-0.911,1.024-2.32,0.34-3.355l2.653-2.653
                  c0.208-0.209,0.208-0.547,0-0.756c-0.209-0.209-0.547-0.209-0.756,0l-2.656,2.656c-1.025-0.655-2.473-0.543-3.351,0.336
                  c-1.04,1.04-1.04,2.731,0,3.771C14.618,18.39,15.288,18.667,16,18.667z M15.058,15.058c0.251-0.252,0.586-0.391,0.942-0.391
                  s0.691,0.139,0.943,0.391c0.52,0.52,0.52,1.365,0,1.885c-0.503,0.504-1.381,0.504-1.885,0
                  C14.538,16.423,14.538,15.577,15.058,15.058z"/>
  </symbol>
  <symbol id="target" viewBox="0 0 42 32">
          <path d="M41.779,13.09c-0.225-0.189-0.562-0.159-0.752,0.068l-2.367,2.84C38.609,15.982,38.557,15.966,38.5,16
                  h-1.391l1.77-2.158c0.189-0.227,0.158-0.563-0.068-0.752c-0.226-0.189-0.563-0.159-0.752,0.068L35.719,16H34.14l1.77-2.158
                  c0.189-0.227,0.158-0.563-0.068-0.752c-0.225-0.189-0.562-0.159-0.752,0.068L32.75,16h-0.752C31.979,7.159,24.811,0,16,0
                  C7.178,0,0,7.178,0,16s7.178,16,16,16c8.473,0,15.41-6.626,15.948-15h0.803l2.34,2.842c0.105,0.127,0.258,0.192,0.41,0.192
                  c0.121,0,0.242-0.04,0.342-0.124c0.227-0.188,0.258-0.525,0.068-0.752L34.14,17h1.579l2.34,2.842
                  c0.105,0.127,0.258,0.192,0.41,0.192c0.121,0,0.242-0.04,0.342-0.124c0.227-0.188,0.258-0.525,0.068-0.752L37.109,17H38.5
                  c0.057,0.034,0.109,0.018,0.161,0.002l2.367,2.84c0.105,0.127,0.258,0.192,0.41,0.192c0.121,0,0.242-0.04,0.342-0.124
                  c0.227-0.188,0.258-0.525,0.068-0.752L39.633,16.5l2.215-2.658C42.037,13.615,42.006,13.278,41.779,13.09z M16,31
                  C7.729,31,1,24.271,1,16S7.729,1,16,1c8.26,0,14.979,6.71,14.998,15h-3C27.98,9.365,22.606,4,16,4C9.383,4,4,9.383,4,16
                  s5.383,12,12,12c6.268,0,11.421-4.832,11.948-11h3C30.413,24.823,23.922,31,16,31z M23.998,16C23.98,11.571,20.4,8,16,8
                  c-4.411,0-8,3.589-8,8s3.589,8,8,8c4.06,0,7.416-3.043,7.925-7h3.022C26.424,22.616,21.716,27,16,27C9.935,27,5,22.065,5,16
                  S9.935,5,16,5c6.054,0,10.98,4.916,10.998,11H23.998z M19.997,16c-0.019-2.224-1.802-4-3.997-4c-2.206,0-4,1.794-4,4s1.794,4,4,4
                  c1.846,0,3.388-1.263,3.847-3h3.068c-0.503,3.404-3.408,6-6.915,6c-3.859,0-7-3.141-7-7s3.141-7,7-7c3.848,0,6.98,3.122,6.998,7
                  H19.997z M16.5,17h2.305c-0.423,1.178-1.516,2-2.805,2c-1.654,0-3-1.346-3-3s1.346-3,3-3c1.643,0,2.978,1.328,2.997,3H16.5
                  c-0.295-0.034-0.534,0.205-0.534,0.5S16.205,17.034,16.5,17z"/>
  </symbol>
  <symbol id="tools-2" viewBox="0 0 32 32">
          <path d="M28.354,1.354c0.115-0.115,0.167-0.279,0.139-0.439c-0.028-0.16-0.132-0.297-0.28-0.366
                  c-2.291-1.08-5.01-0.606-6.798,1.191c-1.698,1.709-2.291,4.393-1.499,6.637L8.377,19.916C7.75,19.692,7.08,19.58,6.381,19.58
                  c-1.714,0-3.376,0.682-4.559,1.872c-1.782,1.792-2.284,4.44-1.281,6.747c0.066,0.152,0.203,0.262,0.366,0.292
                  c0.164,0.031,0.331-0.021,0.447-0.139l3.491-3.509c0.23-0.232,0.601-0.263,0.793-0.068l1.507,1.577
                  c0.219,0.221,0.209,0.562-0.022,0.795l-3.478,3.5c-0.115,0.115-0.166,0.279-0.138,0.439c0.028,0.16,0.132,0.296,0.279,0.365
                  c0.829,0.391,1.701,0.588,2.591,0.588c1.572,0,3.065-0.632,4.207-1.78c1.698-1.708,2.291-4.392,1.498-6.636l11.539-11.54
                  c0.628,0.224,1.298,0.336,1.997,0.336c1.714,0,3.376-0.682,4.559-1.872c1.782-1.792,2.284-4.44,1.281-6.747
                  c-0.066-0.152-0.203-0.262-0.366-0.292c-0.161-0.028-0.33,0.021-0.447,0.139l-3.491,3.509c-0.215,0.216-0.58,0.214-0.801-0.01
                  l-1.499-1.499c-0.226-0.227-0.225-0.568-0.001-0.794L28.354,1.354z M24.146,6.354l1.499,1.499c0.599,0.602,1.625,0.605,2.218,0.009
                  l2.93-2.944c0.469,1.741-0.016,3.609-1.324,4.926c-0.997,1.003-2.399,1.577-3.85,1.577c-0.683,0-1.33-0.128-1.923-0.38
                  c-0.188-0.081-0.405-0.037-0.549,0.106l-12,12c-0.144,0.144-0.186,0.36-0.107,0.547c0.803,1.91,0.314,4.375-1.163,5.861
                  c-1.321,1.328-3.244,1.801-4.985,1.258l2.941-2.96c0.621-0.625,0.631-1.594,0.029-2.198l-1.506-1.577
                  c-0.581-0.585-1.614-0.549-2.218,0.062l-2.93,2.944c-0.469-1.741,0.016-3.609,1.324-4.926c0.997-1.003,2.399-1.577,3.85-1.577
                  c0.683,0,1.33,0.128,1.923,0.38c0.187,0.082,0.405,0.037,0.549-0.106l12-12c0.144-0.144,0.186-0.36,0.107-0.547
                  c-0.803-1.91-0.314-4.376,1.163-5.862c1.32-1.328,3.242-1.798,4.982-1.258l-2.96,2.961C23.53,4.766,23.53,5.734,24.146,6.354z"/>
          <path d="M29.21,30.647c-0.221,0.222-0.604,0.222-0.827-0.002l-10.03-10c-0.195-0.193-0.512-0.194-0.707,0.002
                  c-0.195,0.195-0.194,0.512,0.001,0.707l10.029,9.998c0.3,0.301,0.698,0.467,1.122,0.467c0,0,0,0,0,0
                  c0.424,0,0.822-0.166,1.128-0.474l1.429-1.493c0.615-0.618,0.615-1.587-0.001-2.206l-10-10c-0.195-0.195-0.512-0.195-0.707,0
                  s-0.195,0.512,0,0.707l9.999,9.999c0.229,0.23,0.229,0.564-0.007,0.802L29.21,30.647z"/>
          <path d="M5.854,3.146l-3-3c-0.195-0.195-0.512-0.195-0.707,0l-2,2c-0.195,0.195-0.195,0.512,0,0.707l3,3
                  C3.244,5.951,3.372,6,3.5,6s0.256-0.049,0.354-0.146L4.5,5.207l7.646,7.646C12.244,12.951,12.372,13,12.5,13
                  s0.256-0.049,0.354-0.146c0.195-0.195,0.195-0.512,0-0.707L5.207,4.5l0.646-0.646C6.049,3.658,6.049,3.342,5.854,3.146z M3.5,4.793
                  L1.207,2.5L2.5,1.207L4.793,3.5L3.5,4.793z"/>
  </symbol>
</svg>
