<svg id="svg-techorrect-sprites" version="1.1" xmlns="http://www.w3.org/2000/svg" xmlns:xlink="http://www.w3.org/1999/xlink">
  <symbol id="techorrect-logo" viewBox="0 0 475.47012 125.5275">
    <defs>
      <clipPath id="clipPath3377" clipPathUnits="userSpaceOnUse">
        <path id="path3379" d="M 0,186 432,186 432,0 0,0 0,186 Z" />
      </clipPath>
    </defs>
    <g
     transform="matrix(1.25,0,0,-1.25,-32.264875,179.014)"
     id="g3363"><g
       transform="translate(123.4106,116.6322)"
       id="g3365"><path
         id="path3367"
         style="fill:#1b75bc;fill-opacity:1;fill-rule:nonzero;stroke:none"
         d="m 0,0 18.127,0 0,-7.385 -5.369,0 0,-48.34 -7.387,0 0,48.34 L 0,-7.385 0,0 Z" /></g><g
       transform="translate(151.2713,85.6131)"
       id="g3369"><path
         id="path3371"
         style="fill:#1b75bc;fill-opacity:1;fill-rule:nonzero;stroke:none"
         d="m 0,0 0,-17.321 8.258,0 0,-7.385 -15.643,0 0,55.725 15.643,0 0,-7.385 -8.258,0 0,-16.247 4.7,0 L 4.7,0 0,0 Z" /></g><g
       id="g3373"><g
         clip-path="url(#clipPath3377)"
         id="g3375"><g
           transform="translate(173.7627,81.3846)"
           id="g3381"><path
             id="path3383"
             style="fill:#1b75bc;fill-opacity:1;fill-rule:nonzero;stroke:none"
             d="m 0,0 7.118,0 0,-7.654 c 0,-8.55 -2.932,-12.823 -8.796,-12.823 -6.041,0 -9.064,4.273 -9.064,12.823 l 0,30.078 c 0,8.549 3.023,12.824 9.064,12.824 5.864,0 8.796,-4.275 8.796,-12.824 l 0,-5.908 -7.118,0 0,9.265 c 0,1.387 -0.559,2.082 -1.678,2.082 -1.12,0 -1.679,-0.695 -1.679,-2.082 l 0,-36.793 c 0,-1.387 0.559,-2.08 1.679,-2.08 1.119,0 1.678,0.693 1.678,2.08 L 0,0 Z" /></g><g
           transform="translate(192.2913,93)"
           id="g3385"><path
             id="path3387"
             style="fill:#1b75bc;fill-opacity:1;fill-rule:nonzero;stroke:none"
             d="m 0,0 3.357,0 0,23.632 7.385,0 0,-55.725 -7.385,0 0,24.706 -3.357,0 0,-24.706 -7.385,0 0,55.725 7.385,0 L 0,0 Z" /></g><g
           transform="translate(218.073,107.1654)"
           id="g3389"><path
             id="path3391"
             style="fill:#1b75bc;fill-opacity:1;fill-rule:nonzero;stroke:none"
             d="M 0,0 C 0,1.387 -0.559,2.082 -1.678,2.082 -2.798,2.082 -3.357,1.387 -3.357,0 l 0,-36.792 c 0,-1.388 0.559,-2.081 1.679,-2.081 1.119,0 1.678,0.693 1.678,2.081 L 0,0 Z m 7.385,-33.435 c 0,-8.55 -3.021,-12.823 -9.063,-12.823 -6.041,0 -9.064,4.273 -9.064,12.823 l 0,30.078 c 0,8.549 3.023,12.824 9.064,12.824 6.042,0 9.063,-4.275 9.063,-12.824 l 0,-30.078 z" /></g><g
           transform="translate(237.1404,109.2471)"
           id="g3393"><path
             id="path3395"
             style="fill:#1b75bc;fill-opacity:1;fill-rule:nonzero;stroke:none"
             d="m 0,0 0,-16.247 1.947,0 c 1.655,0 2.486,0.871 2.486,2.618 l 0,11.01 C 4.433,-0.873 3.582,0 1.88,0 L 0,0 Z m 0.94,-23.634 -0.94,0 0,-24.706 -7.385,0 0,55.725 9.265,0 c 6.625,0 9.938,-4.096 9.938,-12.286 l 0,-5.909 c 0,-5.058 -1.367,-8.752 -4.097,-11.078 l 4.164,-26.452 -7.521,0 -3.424,24.706 z" /></g><g
           transform="translate(259.6318,109.2471)"
           id="g3397"><path
             id="path3399"
             style="fill:#1b75bc;fill-opacity:1;fill-rule:nonzero;stroke:none"
             d="m 0,0 0,-16.247 1.947,0 c 1.655,0 2.486,0.871 2.486,2.618 l 0,11.01 C 4.433,-0.873 3.582,0 1.88,0 L 0,0 Z m 0.94,-23.634 -0.94,0 0,-24.706 -7.385,0 0,55.725 9.265,0 c 6.625,0 9.938,-4.096 9.938,-12.286 l 0,-5.909 c 0,-5.058 -1.367,-8.752 -4.097,-11.078 l 4.164,-26.452 -7.521,0 -3.424,24.706 z" /></g><g
           transform="translate(282.1214,85.6131)"
           id="g3401"><path
             id="path3403"
             style="fill:#1b75bc;fill-opacity:1;fill-rule:nonzero;stroke:none"
             d="m 0,0 0,-17.321 8.258,0 0,-7.385 -15.643,0 0,55.725 15.643,0 0,-7.385 -8.258,0 0,-16.247 4.7,0 L 4.7,0 0,0 Z" /></g><g
           transform="translate(304.6128,81.3846)"
           id="g3405"><path
             id="path3407"
             style="fill:#1b75bc;fill-opacity:1;fill-rule:nonzero;stroke:none"
             d="m 0,0 7.118,0 0,-7.654 c 0,-8.55 -2.932,-12.823 -8.796,-12.823 -6.041,0 -9.064,4.273 -9.064,12.823 l 0,30.078 c 0,8.549 3.023,12.824 9.064,12.824 5.864,0 8.796,-4.275 8.796,-12.824 l 0,-5.908 -7.118,0 0,9.265 c 0,1.387 -0.559,2.082 -1.678,2.082 -1.12,0 -1.679,-0.695 -1.679,-2.082 l 0,-36.793 c 0,-1.387 0.559,-2.08 1.679,-2.08 1.119,0 1.678,0.693 1.678,2.08 L 0,0 Z" /></g><g
           transform="translate(313.8111,116.6322)"
           id="g3409"><path
             id="path3411"
             style="fill:#1b75bc;fill-opacity:1;fill-rule:nonzero;stroke:none"
             d="m 0,0 18.127,0 0,-7.385 -5.369,0 0,-48.34 -7.387,0 0,48.34 L 0,-7.385 0,0 Z" /></g><path
           id="path3413"
           style="fill:#1b75bc;fill-opacity:1;fill-rule:nonzero;stroke:none"
           d="m 342.543,116.632 7.385,0 0,-55.725 -7.385,0 0,55.725 z" /><g
           transform="translate(362.2831,80.5783)"
           id="g3415"><path
             id="path3417"
             style="fill:#1b75bc;fill-opacity:1;fill-rule:nonzero;stroke:none"
             d="m 0,0 -1.209,8.661 0,-28.332 -6.849,0 0,55.725 8.326,0 3.559,-19.806 1.141,-8.46 0,28.266 6.848,0 0,-55.725 -8.325,0 L 0,0 Z" /></g><g
           transform="translate(389.1368,81.3846)"
           id="g3419"><path
             id="path3421"
             style="fill:#1b75bc;fill-opacity:1;fill-rule:nonzero;stroke:none"
             d="m 0,0 7.118,0 0,-7.654 c 0,-8.55 -2.932,-12.823 -8.796,-12.823 -6.041,0 -9.064,4.273 -9.064,12.823 l 0,30.078 c 0,8.549 3.023,12.824 9.064,12.824 5.864,0 8.796,-4.275 8.796,-12.824 l 0,-5.908 -7.118,0 0,9.265 c 0,1.387 -0.559,2.082 -1.678,2.082 -1.12,0 -1.679,-0.695 -1.679,-2.082 l 0,-36.793 c 0,-1.387 0.559,-2.08 1.679,-2.08 1.119,0 1.678,0.693 1.678,2.08 L 0,0 Z" /></g><path
           id="path3423"
           style="fill:#1b75bc;fill-opacity:1;fill-rule:nonzero;stroke:none"
           d="m 399.34,69.366 6.848,0 0,-8.459 -6.848,0 0,8.459 z" /><g
           transform="translate(84.2749,120.6612)"
           id="g3425"><path
             id="path3427"
             style="fill:#1b75bc;fill-opacity:1;fill-rule:nonzero;stroke:none"
             d="m 0,0 29.443,0 -19.71,22.55 -21.46,0 0,-0.002 -0.096,0 0,-71.79 -11.61,-12.65 -0.22,66.93 -22.33,0 9.41,10.94 19.16,0 0.11,6.57 -21.46,0 -19.7,-22.55 28.68,0 0.22,-77.87 23.87,27.15 0.03,66.7 -0.002,0.002 13.208,0 L 16.963,5.03 0,5.03 0,0 Z" /></g></g></g></g>
  </symbol>
</svg>
